<svg xmlns="http://www.w3.org/2000/svg" xmlns:xlink="http://www.w3.org/1999/xlink" viewBox="0 0 904.58 311.6"><defs><style>.cls-1{fill:none;}.cls-2{clip-path:url(#clip-path);}.cls-3{fill:#abd130;}.cls-4{fill:#abd030;}.cls-5{fill:#aacf30;}.cls-6{fill:#a9cf30;}.cls-7{fill:#a8ce30;}.cls-8{fill:#a7cd30;}.cls-9{fill:#a6cc30;}.cls-10{fill:#a5cc2f;}.cls-11{fill:#a4cb2f;}.cls-12{fill:#a3ca2f;}.cls-13{fill:#a3c92f;}.cls-14{fill:#a1c82f;}.cls-15{fill:#a0c72f;}.cls-16{fill:#9fc62e;}.cls-17{fill:#9ec52e;}.cls-18{fill:#9dc42e;}.cls-19{fill:#9cc32e;}.cls-20{fill:#9bc22e;}.cls-21{fill:#9ac12d;}.cls-22{fill:#98c02d;}.cls-23{fill:#97bf2d;}.cls-24{fill:#96be2d;}.cls-25{fill:#95bc2d;}.cls-26{fill:#93bb2c;}.cls-27{fill:#92ba2c;}.cls-28{fill:#90b92c;}.cls-29{fill:#8fb72c;}.cls-30{fill:#8eb62b;}.cls-31{fill:#8cb52b;}.cls-32{fill:#8bb32b;}.cls-33{fill:#89b22b;}.cls-34{fill:#87b12a;}.cls-35{fill:#86af2a;}.cls-36{fill:#84ae2a;}.cls-37{fill:#82ac2a;}.cls-38{fill:#81ab29;}.cls-39{fill:#7fa929;}.cls-40{fill:#7da729;}.cls-41{fill:#7ba628;}.cls-42{fill:#7aa428;}.cls-43{fill:#78a228;}.cls-44{fill:#76a127;}.cls-45{fill:#749f27;}.cls-46{fill:#729d27;}.cls-47{fill:#709b26;}.cls-48{fill:#6e9a26;}.cls-49{fill:#6c9826;}.cls-50{fill:#6a9625;}.cls-51{fill:#689425;}.cls-52{fill:#659225;}.cls-53{fill:#639024;}.cls-54{fill:#618e24;}.cls-55{fill:#5f8c24;}.cls-56{fill:#5c8a23;}.cls-57{fill:#5a8823;}.cls-58{fill:#588522;}.cls-59{clip-path:url(#clip-path-2);}.cls-60{clip-path:url(#clip-path-3);}.cls-61{clip-path:url(#clip-path-4);}.cls-62{fill:#add231;}.cls-63{fill:#acd231;}.cls-64{clip-path:url(#clip-path-5);}.cls-65{clip-path:url(#clip-path-6);}.cls-66{clip-path:url(#clip-path-7);}.cls-67{clip-path:url(#clip-path-8);}.cls-68{clip-path:url(#clip-path-9);}.cls-69{clip-path:url(#clip-path-10);}.cls-70{clip-path:url(#clip-path-11);}.cls-71{fill:#1e5100;}</style><clipPath id="clip-path" transform="translate(0)"><path class="cls-1" d="M739.43,142.4c3.29-26.26,22.86-49.16,47.61-58.81s54-7.77,77.65,4.65a78.92,78.92,0,0,1,33.7,33.37c-7.69-7.46-20.38-7.57-30-3s-16.82,12.92-23.45,21.22-13.17,17-22.11,22.79c-9.89,6.39-22.11,8.69-33.92,7.87s-30-7.77-40.81-12.74c26.1-31.22,66.12-51,107.06-52.34C814,97.05,768.57,112.56,739.43,142.4Z"/></clipPath><clipPath id="clip-path-2" transform="translate(0)"><path class="cls-1" d="M740.93,134.68c13.26-11,19-29.66,15.7-46.61a62,62,0,0,0-29.59-41,51.28,51.28,0,0,0-30-6.88c6.77,1.62,11.25,8.55,12.08,15.43s-1.23,13.73-3.48,20.26S700.84,89,700.78,96c-.06,7.66,2.93,15.17,7.49,21.36s14.73,13.79,21.2,18a96.27,96.27,0,0,0-8.55-77C739.86,78,747.16,108.3,740.93,134.68Z"/></clipPath><clipPath id="clip-path-3" transform="translate(0)"><path class="cls-1" d="M26.42,306.42Q14.3,301.25,7.87,291.91a36.37,36.37,0,0,1-6.42-21.13V265.6a30,30,0,0,1,2.9-13.37,105.33,105.33,0,0,1,8.08-13.36,63.07,63.07,0,0,0,4.77-7.36,11.64,11.64,0,0,0,1.45-5.28q0-5.8-7-5.81H0V197.63H30.05q9.31,0,14.92,5.39t5.59,14.09a28.72,28.72,0,0,1-2.28,11.5,79,79,0,0,1-6.84,12.12,100.17,100.17,0,0,0-6.52,11.6,24.51,24.51,0,0,0-2.18,10.36v4.36q0,9.74,5.7,14.92t16.68,5.18q21.75,0,21.76-20.93V197.63h31.49V262.9q0,22.59-13.78,35.64T55.12,311.6Q38.55,311.6,26.42,306.42Z"/></clipPath><clipPath id="clip-path-4" transform="translate(0)"><path class="cls-1" d="M76.67,147.07h31.49V184H76.67Z"/></clipPath><clipPath id="clip-path-5" transform="translate(0)"><path class="cls-1" d="M163.08,239.49q0-10.77-4.56-15.65t-16-4.87a49.27,49.27,0,0,0-22.17,5.6V200.74a59.15,59.15,0,0,1,13.37-4.35A74.42,74.42,0,0,1,150,194.52q21.76,0,33.16,11.61t11.39,33.56v68.8H163.08Z"/></clipPath><clipPath id="clip-path-6" transform="translate(0)"><path class="cls-1" d="M211.77,302.69V278.24q12.84,8.91,35.23,8.91,17.4,0,26.93-8.4t9.54-25.59q0-17.19-9.54-25.69T247,219q-21.56,0-34.4,9.12V203.64a55.09,55.09,0,0,1,18-6.84,112,112,0,0,1,23.2-2.28q29,0,45.49,15.44t16.47,43.2q0,27.78-16.47,43.1T253.83,311.6Q226.28,311.6,211.77,302.69Z"/></clipPath><clipPath id="clip-path-7" transform="translate(0)"><path class="cls-1" d="M339.1,302Q333,295.44,333,283.83v-86.2h31.5v77.7c0,3.32.68,5.67,2.07,7.05s3.66,2.07,6.84,2.07h7.25v24h-24Q345.21,308.49,339.1,302Z"/></clipPath><clipPath id="clip-path-8" transform="translate(0)"><path class="cls-1" d="M403.23,242.39l-10.36-17.61q24.25-30.25,62.37-30.26,26.73,0,41.14,11.81t14.4,32.95v69.21h-31.5V241.77q0-22.8-24-22.8a46.79,46.79,0,0,0-15.85,2.49,37.62,37.62,0,0,0-12.95,8.08l8.08,13.26v65.69H403.23Z"/></clipPath><clipPath id="clip-path-9" transform="translate(0)"><path class="cls-1" d="M559.06,305.48a47.35,47.35,0,0,1-19.89-16.88,43.68,43.68,0,0,1-7-24.46V197.63h31.5v64.44q0,12,6.32,18.55t19.16,6.53q12.85,0,19.07-6.53t6.21-18.55v-7.46H592.21v-24h22.17v-33h31.5v33h10.36v24H645.88v9.53a43.68,43.68,0,0,1-7,24.46,47.35,47.35,0,0,1-19.89,16.88q-12.86,6.12-29.84,6.12Q571.91,311.6,559.06,305.48Z"/></clipPath><clipPath id="clip-path-10" transform="translate(0)"><path class="cls-1" d="M679.24,297.4q-14.93-14.19-14.92-41.75,0-18.85,5.39-32.64t15.23-21.13a36.9,36.9,0,0,1,22.69-7.36,29.13,29.13,0,0,1,13.36,2.9,24.35,24.35,0,0,1,9.22,8.08,23.12,23.12,0,0,1,10.88-8.28,42.92,42.92,0,0,1,15.65-2.7q15.74,0,24.45,9.64t8.7,25.38v79H758.6V232.65q0-7.05-2.17-10.36c-1.45-2.21-3.91-3.32-7.36-3.32q-9.12,0-11.4,11.19H723Q721.51,219,713.22,219q-7.46,0-12,9.33t-4.55,27.35q0,16.16,6.94,23.83t22.07,7.67a40.79,40.79,0,0,0,14.09-2.28v24q-8.09,2.7-19.9,2.7Q694.16,311.6,679.24,297.4Z"/></clipPath><clipPath id="clip-path-11" transform="translate(0)"><path class="cls-1" d="M828.12,309.21q-12.54-2.37-19.79-7.15V278a78.32,78.32,0,0,0,20.41,8.29,83,83,0,0,0,20.41,2.9q11,0,16.06-2.18a7.8,7.8,0,0,0,5.08-7.77q0-5-4.87-7.67t-18.13-6.83l-5.18-1.66q-17.82-5.6-26.32-13.47t-8.49-21.55q0-16,12.84-24.76t34.61-8.81A102.76,102.76,0,0,1,877.54,197q11,2.49,17.61,6.42v24.66a56,56,0,0,0-16.47-7.36,70.81,70.81,0,0,0-19.37-2.79q-20.1,0-20.1,10.15,0,5,4.76,7.67t17,6.42l7.46,2.28q13.07,4.14,20.41,9.12t10.26,11.19a35.65,35.65,0,0,1,2.9,15.12q0,14.3-12.33,23t-36.78,8.71A132.28,132.28,0,0,1,828.12,309.21Z"/></clipPath></defs><g id="Layer_2" data-name="Layer 2"><g id="Layer_2-2" data-name="Layer 2"><g class="cls-2"><polygon class="cls-3" points="904.07 112.41 886.3 100.28 904.59 111.58 904.07 112.41"/><polygon class="cls-4" points="902.84 114.39 842.55 73.26 886.3 100.28 904.07 112.41 902.84 114.39"/><polygon class="cls-5" points="901.62 116.38 798.8 46.23 842.55 73.26 902.84 114.39 901.62 116.38"/><polygon class="cls-6" points="900.39 118.37 790.11 43.13 791.2 41.54 798.8 46.23 901.62 116.38 900.39 118.37"/><polygon class="cls-7" points="899.16 120.36 788.8 45.06 790.11 43.13 900.39 118.37 899.16 120.36"/><polygon class="cls-8" points="897.93 122.35 787.48 46.99 788.8 45.06 899.16 120.36 897.93 122.35"/><polygon class="cls-9" points="896.7 124.34 786.16 48.92 787.48 46.99 897.93 122.35 896.7 124.34"/><polygon class="cls-10" points="895.47 126.33 784.85 50.85 786.16 48.92 896.7 124.34 895.47 126.33"/><polygon class="cls-11" points="894.24 128.32 783.53 52.78 784.85 50.85 895.47 126.33 894.24 128.32"/><polygon class="cls-12" points="893.02 130.31 782.22 54.71 783.53 52.78 894.24 128.32 893.02 130.31"/><polygon class="cls-13" points="891.79 132.29 780.9 56.64 782.22 54.71 893.02 130.31 891.79 132.29"/><polygon class="cls-14" points="890.56 134.28 779.58 58.57 780.9 56.64 891.79 132.29 890.56 134.28"/><polygon class="cls-15" points="889.33 136.27 778.27 60.5 779.58 58.57 890.56 134.28 889.33 136.27"/><polygon class="cls-16" points="888.1 138.26 776.95 62.42 778.27 60.5 889.33 136.27 888.1 138.26"/><polygon class="cls-17" points="886.87 140.25 775.63 64.35 776.95 62.42 888.1 138.26 886.87 140.25"/><polygon class="cls-18" points="885.64 142.24 774.32 66.28 775.63 64.35 886.87 140.25 885.64 142.24"/><polygon class="cls-19" points="884.42 144.23 773 68.21 774.32 66.28 885.64 142.24 884.42 144.23"/><polygon class="cls-20" points="883.19 146.22 771.69 70.14 773 68.21 884.42 144.23 883.19 146.22"/><polygon class="cls-21" points="881.96 148.21 770.37 72.07 771.69 70.14 883.19 146.22 881.96 148.21"/><polygon class="cls-22" points="880.73 150.19 769.05 74 770.37 72.07 881.96 148.21 880.73 150.19"/><polygon class="cls-23" points="879.5 152.18 767.74 75.93 769.05 74 880.73 150.19 879.5 152.18"/><polygon class="cls-24" points="878.27 154.17 766.42 77.86 767.74 75.93 879.5 152.18 878.27 154.17"/><polygon class="cls-25" points="877.05 156.16 765.16 79.82 765.87 78.67 766.42 77.86 878.27 154.17 877.05 156.16"/><polygon class="cls-26" points="875.82 158.15 763.93 81.81 765.16 79.82 877.05 156.16 875.82 158.15"/><polygon class="cls-27" points="875.24 159.08 874.54 160.11 762.7 83.8 763.93 81.81 875.82 158.15 875.24 159.08"/><polygon class="cls-28" points="874.54 160.11 873.23 162.03 761.47 85.79 762.7 83.8 874.54 160.11"/><polygon class="cls-29" points="873.23 162.03 871.91 163.96 760.24 87.78 761.47 85.79 873.23 162.03"/><polygon class="cls-30" points="871.91 163.96 870.59 165.89 759.01 89.77 760.24 87.78 871.91 163.96"/><polygon class="cls-31" points="870.59 165.89 869.28 167.82 757.79 91.75 759.01 89.77 870.59 165.89"/><polygon class="cls-32" points="869.28 167.82 867.96 169.75 756.56 93.74 757.79 91.75 869.28 167.82"/><polygon class="cls-33" points="867.96 169.75 866.65 171.68 755.33 95.73 756.56 93.74 867.96 169.75"/><polygon class="cls-34" points="866.65 171.68 865.33 173.61 754.1 97.72 755.33 95.73 866.65 171.68"/><polygon class="cls-35" points="865.33 173.61 864.01 175.54 752.87 99.71 754.1 97.72 865.33 173.61"/><polygon class="cls-36" points="864.01 175.54 862.7 177.47 751.64 101.7 752.87 99.71 864.01 175.54"/><polygon class="cls-37" points="862.7 177.47 861.38 179.4 750.42 103.69 751.64 101.7 862.7 177.47"/><polygon class="cls-38" points="861.38 179.4 860.07 181.32 749.19 105.68 750.42 103.69 861.38 179.4"/><polygon class="cls-39" points="860.07 181.32 858.75 183.25 747.96 107.67 749.19 105.68 860.07 181.32"/><polygon class="cls-40" points="858.75 183.25 857.43 185.18 746.73 109.65 747.96 107.67 858.75 183.25"/><polygon class="cls-41" points="857.43 185.18 856.12 187.11 745.5 111.64 746.73 109.65 857.43 185.18"/><polygon class="cls-42" points="856.12 187.11 854.8 189.04 744.27 113.63 745.5 111.64 856.12 187.11"/><polygon class="cls-43" points="854.8 189.04 853.49 190.97 743.04 115.62 744.27 113.63 854.8 189.04"/><polygon class="cls-44" points="853.49 190.97 852.17 192.9 741.82 117.61 743.04 115.62 853.49 190.97"/><polygon class="cls-45" points="852.17 192.9 850.85 194.83 740.59 119.6 741.82 117.61 852.17 192.9"/><polygon class="cls-46" points="850.85 194.83 849.54 196.76 739.36 121.59 740.59 119.6 850.85 194.83"/><polygon class="cls-47" points="849.54 196.76 848.22 198.69 738.13 123.58 739.36 121.59 849.54 196.76"/><polygon class="cls-48" points="848.22 198.69 846.9 200.62 736.9 125.56 738.13 123.58 848.22 198.69"/><polygon class="cls-49" points="846.9 200.62 845.59 202.54 735.67 127.55 736.9 125.56 846.9 200.62"/><polygon class="cls-50" points="845.59 202.54 844.27 204.47 734.45 129.54 735.67 127.55 845.59 202.54"/><polygon class="cls-51" points="844.27 204.47 842.96 206.4 733.22 131.53 734.45 129.54 844.27 204.47"/><polygon class="cls-52" points="842.96 206.4 841.64 208.33 731.99 133.52 733.22 131.53 842.96 206.4"/><polygon class="cls-53" points="841.64 208.33 840.32 210.26 730.76 135.51 731.99 133.52 841.64 208.33"/><polygon class="cls-54" points="840.32 210.26 839.01 212.19 729.53 137.5 730.76 135.51 840.32 210.26"/><polygon class="cls-55" points="839.01 212.19 838.18 213.4 821.95 203.38 728.3 139.49 729.53 137.5 839.01 212.19"/><polygon class="cls-56" points="778.19 176.35 727.08 141.47 728.3 139.49 821.95 203.38 778.19 176.35"/><polygon class="cls-57" points="734.44 149.33 725.85 143.46 727.08 141.47 778.19 176.35 734.44 149.33"/><polygon class="cls-58" points="725.85 143.46 734.44 149.33 725.6 143.87 725.85 143.46"/></g><g class="cls-59"><polygon class="cls-22" points="780.21 81.61 743.9 56.84 781.26 79.91 780.21 81.61"/><polygon class="cls-23" points="778.98 83.6 702.44 31.38 702.5 31.27 743.9 56.84 780.21 81.61 778.98 83.6"/><polygon class="cls-24" points="777.75 85.59 701.21 33.37 702.44 31.38 778.98 83.6 777.75 85.59"/><polygon class="cls-25" points="776.52 87.58 699.98 35.35 701.21 33.37 777.75 85.59 776.52 87.58"/><polygon class="cls-26" points="775.3 89.56 698.75 37.34 699.98 35.35 776.52 87.58 775.3 89.56"/><polygon class="cls-27" points="774.07 91.55 697.52 39.33 698.75 37.34 775.3 89.56 774.07 91.55"/><polygon class="cls-28" points="772.84 93.54 696.3 41.32 697.52 39.33 774.07 91.55 772.84 93.54"/><polygon class="cls-29" points="771.61 95.53 695.07 43.31 696.3 41.32 772.84 93.54 771.61 95.53"/><polygon class="cls-30" points="770.38 97.52 693.84 45.3 695.07 43.31 771.61 95.53 770.38 97.52"/><polygon class="cls-31" points="769.15 99.51 692.61 47.29 693.84 45.3 770.38 97.52 769.15 99.51"/><polygon class="cls-32" points="767.92 101.5 691.38 49.28 692.61 47.29 769.15 99.51 767.92 101.5"/><polygon class="cls-33" points="766.7 103.49 690.15 51.27 691.38 49.28 767.92 101.5 766.7 103.49"/><polygon class="cls-34" points="765.47 105.48 688.93 53.25 690.15 51.27 766.7 103.49 765.47 105.48"/><polygon class="cls-35" points="764.24 107.47 687.7 55.24 688.93 53.25 765.47 105.48 764.24 107.47"/><polygon class="cls-36" points="763.01 109.45 686.47 57.23 687.7 55.24 764.24 107.47 763.01 109.45"/><polygon class="cls-37" points="761.78 111.44 685.24 59.22 686.47 57.23 763.01 109.45 761.78 111.44"/><polygon class="cls-38" points="760.55 113.43 684.01 61.21 685.24 59.22 761.78 111.44 760.55 113.43"/><polygon class="cls-39" points="759.33 115.42 682.78 63.2 684.01 61.21 760.55 113.43 759.33 115.42"/><polygon class="cls-40" points="758.1 117.41 681.56 65.19 682.78 63.2 759.33 115.42 758.1 117.41"/><polygon class="cls-41" points="756.87 119.4 680.33 67.17 681.56 65.19 758.1 117.41 756.87 119.4"/><polygon class="cls-42" points="755.64 121.39 679.1 69.16 680.33 67.17 756.87 119.4 755.64 121.39"/><polygon class="cls-43" points="754.41 123.38 677.87 71.15 679.1 69.16 755.64 121.39 754.41 123.38"/><polygon class="cls-44" points="753.18 125.36 676.64 73.14 677.87 71.15 754.41 123.38 753.18 125.36"/><polygon class="cls-45" points="751.96 127.35 675.41 75.13 676.64 73.14 753.18 125.36 751.96 127.35"/><polygon class="cls-46" points="750.73 129.34 674.18 77.12 675.41 75.13 751.96 127.35 750.73 129.34"/><polygon class="cls-47" points="749.5 131.33 672.96 79.11 674.18 77.12 750.73 129.34 749.5 131.33"/><polygon class="cls-48" points="748.27 133.32 671.73 81.1 672.96 79.11 749.5 131.33 748.27 133.32"/><polygon class="cls-49" points="747.04 135.31 670.5 83.09 671.73 81.1 748.27 133.32 747.04 135.31"/><polygon class="cls-50" points="745.81 137.3 669.27 85.08 670.5 83.09 747.04 135.31 745.81 137.3"/><polygon class="cls-51" points="744.59 139.29 668.04 87.06 669.27 85.08 745.81 137.3 744.59 139.29"/><polygon class="cls-52" points="743.36 141.28 666.81 89.05 668.04 87.06 744.59 139.29 743.36 141.28"/><polygon class="cls-53" points="739.37 141.38 665.59 91.04 666.81 89.05 743.36 141.28 742.21 143.13 739.37 141.38"/><polygon class="cls-54" points="695.62 114.36 664.36 93.03 665.59 91.04 739.37 141.38 695.62 114.36"/><polygon class="cls-55" points="664.36 93.03 695.62 114.36 663.46 94.49 664.36 93.03"/></g><g class="cls-60"><polygon class="cls-15" points="65.93 197.63 0 198.45 0 197.63 65.93 197.63"/><polygon class="cls-16" points="108.37 200.64 0 201.98 0 198.45 65.93 197.63 108.37 197.63 108.37 200.64"/><polygon class="cls-17" points="108.37 204.17 0 205.51 0 201.98 108.37 200.64 108.37 204.17"/><polygon class="cls-18" points="108.37 207.7 0 209.05 0 205.51 108.37 204.17 108.37 207.7"/><polygon class="cls-19" points="108.37 211.23 0 212.58 0 209.05 108.37 207.7 108.37 211.23"/><polygon class="cls-20" points="108.37 214.77 0 216.11 0 212.58 108.37 211.23 108.37 214.77"/><polygon class="cls-21" points="108.37 218.3 0 219.64 0 216.11 108.37 214.77 108.37 218.3"/><polygon class="cls-22" points="108.37 221.83 0 223.18 0 219.64 108.37 218.3 108.37 221.83"/><polygon class="cls-23" points="108.37 225.36 0 226.71 0 223.18 108.37 221.83 108.37 225.36"/><polygon class="cls-24" points="108.37 228.9 0 230.24 0 226.71 108.37 225.36 108.37 228.9"/><polygon class="cls-25" points="108.37 232.43 0 233.77 0 230.24 108.37 228.9 108.37 232.43"/><polygon class="cls-26" points="108.37 235.96 0 237.31 0 233.77 108.37 232.43 108.37 235.96"/><polygon class="cls-27" points="108.37 239.5 0 240.84 0 237.31 108.37 235.96 108.37 239.5"/><polygon class="cls-28" points="108.37 243.03 0 244.37 0 240.84 108.37 239.5 108.37 243.03"/><polygon class="cls-29" points="108.37 246.56 0 247.9 0 244.37 108.37 243.03 108.37 246.56"/><polygon class="cls-30" points="108.37 250.09 0 251.44 0 247.9 108.37 246.56 108.37 250.09"/><polygon class="cls-31" points="108.37 253.63 0 254.97 0 251.44 108.37 250.09 108.37 253.63"/><polygon class="cls-32" points="108.37 257.16 0 258.5 0 254.97 108.37 253.63 108.37 257.16"/><polygon class="cls-33" points="108.37 260.69 0 262.04 0 258.5 108.37 257.16 108.37 260.69"/><polygon class="cls-34" points="108.37 264.22 0 265.57 0 262.04 108.37 260.69 108.37 264.22"/><polygon class="cls-35" points="108.37 267.75 0 269.1 0 265.57 108.37 264.22 108.37 267.75"/><polygon class="cls-36" points="108.37 271.29 0 272.63 0 269.1 108.37 267.75 108.37 271.29"/><polygon class="cls-37" points="108.37 274.82 0 276.17 0 272.63 108.37 271.29 108.37 274.82"/><polygon class="cls-38" points="108.37 278.35 0 279.7 0 276.17 108.37 274.82 108.37 278.35"/><polygon class="cls-39" points="108.37 281.88 0 283.23 0 279.7 108.37 278.35 108.37 281.88"/><polygon class="cls-40" points="108.37 285.42 0 286.76 0 283.23 108.37 281.88 108.37 285.42"/><polygon class="cls-41" points="108.37 288.95 0 290.3 0 286.76 108.37 285.42 108.37 288.95"/><polygon class="cls-42" points="108.37 292.48 0 293.83 0 290.3 108.37 288.95 108.37 292.48"/><polygon class="cls-43" points="108.37 296.02 0 297.36 0 293.83 108.37 292.48 108.37 296.02"/><polygon class="cls-44" points="108.37 299.55 0 300.89 0 297.36 108.37 296.02 108.37 299.55"/><polygon class="cls-45" points="108.37 303.08 0 304.43 0 300.89 108.37 299.55 108.37 303.08"/><polygon class="cls-46" points="108.37 306.61 0 307.96 0 304.43 108.37 303.08 108.37 306.61"/><polygon class="cls-47" points="108.37 310.15 0 311.49 0 307.96 108.37 306.61 108.37 310.15"/><polygon class="cls-48" points="0 311.49 108.37 310.15 108.37 311.6 0 311.6 0 311.49"/></g><g class="cls-61"><polygon class="cls-62" points="108.17 147.65 76.67 148.04 76.67 147.07 108.17 147.07 108.17 147.65"/><polygon class="cls-63" points="108.17 151.18 76.67 151.57 76.67 148.04 108.17 147.65 108.17 151.18"/><polygon class="cls-3" points="108.17 154.72 76.67 155.11 76.67 151.57 108.17 151.18 108.17 154.72"/><polygon class="cls-4" points="108.17 158.25 76.67 158.64 76.67 155.11 108.17 154.72 108.17 158.25"/><polygon class="cls-5" points="108.17 161.78 76.67 162.17 76.67 158.64 108.17 158.25 108.17 161.78"/><polygon class="cls-6" points="108.17 165.31 76.67 165.7 76.67 162.17 108.17 161.78 108.17 165.31"/><polygon class="cls-7" points="108.17 168.85 76.67 169.24 76.67 165.7 108.17 165.31 108.17 168.85"/><polygon class="cls-8" points="108.17 172.38 76.67 172.77 76.67 169.24 108.17 168.85 108.17 172.38"/><polygon class="cls-9" points="108.17 175.91 76.67 176.3 76.67 172.77 108.17 172.38 108.17 175.91"/><polygon class="cls-10" points="108.17 179.44 76.67 179.83 76.67 176.3 108.17 175.91 108.17 179.44"/><polygon class="cls-11" points="108.17 182.98 76.67 183.37 76.67 179.83 108.17 179.44 108.17 182.98"/><polygon class="cls-12" points="76.67 183.37 108.17 182.98 108.17 183.96 76.67 183.96 76.67 183.37"/></g><g class="cls-64"><polygon class="cls-15" points="194.57 196.03 120.39 196.95 120.39 194.52 194.57 194.52 194.57 196.03"/><polygon class="cls-16" points="194.57 199.57 120.39 200.49 120.39 196.95 194.57 196.03 194.57 199.57"/><polygon class="cls-17" points="194.57 203.1 120.39 204.02 120.39 200.49 194.57 199.57 194.57 203.1"/><polygon class="cls-18" points="194.57 206.63 120.39 207.55 120.39 204.02 194.57 203.1 194.57 206.63"/><polygon class="cls-19" points="194.57 210.16 120.39 211.09 120.39 207.55 194.57 206.63 194.57 210.16"/><polygon class="cls-20" points="194.57 213.7 120.39 214.62 120.39 211.09 194.57 210.16 194.57 213.7"/><polygon class="cls-21" points="194.57 217.23 120.39 218.15 120.39 214.62 194.57 213.7 194.57 217.23"/><polygon class="cls-22" points="194.57 220.76 120.39 221.68 120.39 218.15 194.57 217.23 194.57 220.76"/><polygon class="cls-23" points="194.57 224.29 120.39 225.22 120.39 221.68 194.57 220.76 194.57 224.29"/><polygon class="cls-24" points="194.57 227.83 120.39 228.75 120.39 225.22 194.57 224.29 194.57 227.83"/><polygon class="cls-25" points="194.57 231.36 120.39 232.28 120.39 228.75 194.57 227.83 194.57 231.36"/><polygon class="cls-26" points="194.57 234.89 120.39 235.81 120.39 232.28 194.57 231.36 194.57 234.89"/><polygon class="cls-27" points="194.57 238.43 120.39 239.34 120.39 235.81 194.57 234.89 194.57 238.43"/><polygon class="cls-28" points="194.57 241.96 120.39 242.88 120.39 239.34 194.57 238.43 194.57 241.96"/><polygon class="cls-29" points="194.57 245.49 120.39 246.41 120.39 242.88 194.57 241.96 194.57 245.49"/><polygon class="cls-30" points="194.57 249.02 120.39 249.94 120.39 246.41 194.57 245.49 194.57 249.02"/><polygon class="cls-31" points="194.57 252.56 120.39 253.48 120.39 249.94 194.57 249.02 194.57 252.56"/><polygon class="cls-32" points="194.57 256.09 120.39 257.01 120.39 253.48 194.57 252.56 194.57 256.09"/><polygon class="cls-33" points="194.57 259.62 120.39 260.54 120.39 257.01 194.57 256.09 194.57 259.62"/><polygon class="cls-34" points="194.57 263.15 120.39 264.07 120.39 260.54 194.57 259.62 194.57 263.15"/><polygon class="cls-35" points="194.57 266.69 120.39 267.61 120.39 264.07 194.57 263.15 194.57 266.69"/><polygon class="cls-36" points="194.57 270.22 120.39 271.14 120.39 267.61 194.57 266.69 194.57 270.22"/><polygon class="cls-37" points="194.57 273.75 120.39 274.67 120.39 271.14 194.57 270.22 194.57 273.75"/><polygon class="cls-38" points="194.57 277.28 120.39 278.2 120.39 274.67 194.57 273.75 194.57 277.28"/><polygon class="cls-39" points="194.57 280.82 120.39 281.74 120.39 278.2 194.57 277.28 194.57 280.82"/><polygon class="cls-40" points="194.57 284.35 120.39 285.27 120.39 281.74 194.57 280.82 194.57 284.35"/><polygon class="cls-41" points="194.57 287.88 120.39 288.8 120.39 285.27 194.57 284.35 194.57 287.88"/><polygon class="cls-42" points="194.57 291.41 120.39 292.33 120.39 288.8 194.57 287.88 194.57 291.41"/><polygon class="cls-43" points="194.57 294.95 120.39 295.87 120.39 292.33 194.57 291.41 194.57 294.95"/><polygon class="cls-44" points="194.57 298.48 120.39 299.4 120.39 295.87 194.57 294.95 194.57 298.48"/><polygon class="cls-45" points="194.57 302.01 120.39 302.93 120.39 299.4 194.57 298.48 194.57 302.01"/><polygon class="cls-46" points="194.57 305.54 120.39 306.46 120.39 302.93 194.57 302.01 194.57 305.54"/><polygon class="cls-47" points="120.39 306.46 194.57 305.54 194.57 308.49 120.39 308.49 120.39 306.46"/></g><g class="cls-65"><polygon class="cls-15" points="315.79 194.53 211.77 195.82 211.77 194.52 315.79 194.52 315.79 194.53"/><polygon class="cls-16" points="315.79 198.06 211.77 199.35 211.77 195.82 315.79 194.53 315.79 198.06"/><polygon class="cls-17" points="315.79 201.59 211.77 202.89 211.77 199.35 315.79 198.06 315.79 201.59"/><polygon class="cls-18" points="315.79 205.13 211.77 206.42 211.77 202.89 315.79 201.59 315.79 205.13"/><polygon class="cls-19" points="315.79 208.66 211.77 209.95 211.77 206.42 315.79 205.13 315.79 208.66"/><polygon class="cls-20" points="315.79 212.19 211.77 213.48 211.77 209.95 315.79 208.66 315.79 212.19"/><polygon class="cls-21" points="315.79 215.73 211.77 217.02 211.77 213.48 315.79 212.19 315.79 215.73"/><polygon class="cls-22" points="315.79 219.26 211.77 220.55 211.77 217.02 315.79 215.73 315.79 219.26"/><polygon class="cls-23" points="315.79 222.79 211.77 224.08 211.77 220.55 315.79 219.26 315.79 222.79"/><polygon class="cls-24" points="315.79 226.32 211.77 227.61 211.77 224.08 315.79 222.79 315.79 226.32"/><polygon class="cls-25" points="315.79 229.86 211.77 231.15 211.77 227.61 315.79 226.32 315.79 229.86"/><polygon class="cls-26" points="315.79 233.39 211.77 234.68 211.77 231.15 315.79 229.86 315.79 233.39"/><polygon class="cls-27" points="315.79 236.92 211.77 238.21 211.77 234.68 315.79 233.39 315.79 236.92"/><polygon class="cls-28" points="315.79 240.45 211.77 241.74 211.77 238.21 315.79 236.92 315.79 240.45"/><polygon class="cls-29" points="315.79 243.99 211.77 245.28 211.77 241.74 315.79 240.45 315.79 243.99"/><polygon class="cls-30" points="315.79 247.52 211.77 248.81 211.77 245.28 315.79 243.99 315.79 247.52"/><polygon class="cls-31" points="315.79 251.05 211.77 252.34 211.77 248.81 315.79 247.52 315.79 251.05"/><polygon class="cls-32" points="315.79 254.58 211.77 255.88 211.77 252.34 315.79 251.05 315.79 254.58"/><polygon class="cls-33" points="315.79 258.12 211.77 259.41 211.77 255.88 315.79 254.58 315.79 258.12"/><polygon class="cls-34" points="315.79 261.65 211.77 262.94 211.77 259.41 315.79 258.12 315.79 261.65"/><polygon class="cls-35" points="315.79 265.18 211.77 266.47 211.77 262.94 315.79 261.65 315.79 265.18"/><polygon class="cls-36" points="315.79 268.71 211.77 270 211.77 266.47 315.79 265.18 315.79 268.71"/><polygon class="cls-37" points="315.79 272.25 211.77 273.54 211.77 270 315.79 268.71 315.79 272.25"/><polygon class="cls-38" points="315.79 275.78 211.77 277.07 211.77 273.54 315.79 272.25 315.79 275.78"/><polygon class="cls-39" points="315.79 279.31 211.77 280.6 211.77 277.07 315.79 275.78 315.79 279.31"/><polygon class="cls-40" points="315.79 282.85 211.77 284.13 211.77 280.6 315.79 279.31 315.79 282.85"/><polygon class="cls-41" points="315.79 286.38 211.77 287.67 211.77 284.13 315.79 282.85 315.79 286.38"/><polygon class="cls-42" points="315.79 289.91 211.77 291.2 211.77 287.67 315.79 286.38 315.79 289.91"/><polygon class="cls-43" points="315.79 293.44 211.77 294.73 211.77 291.2 315.79 289.91 315.79 293.44"/><polygon class="cls-44" points="315.79 296.98 211.77 298.26 211.77 294.73 315.79 293.44 315.79 296.98"/><polygon class="cls-45" points="315.79 300.51 211.77 301.8 211.77 298.26 315.79 296.98 315.79 300.51"/><polygon class="cls-46" points="315.79 304.04 211.77 305.33 211.77 301.8 315.79 300.51 315.79 304.04"/><polygon class="cls-47" points="315.79 307.57 211.77 308.86 211.77 305.33 315.79 304.04 315.79 307.57"/><polygon class="cls-48" points="315.79 311.11 276.17 311.6 211.77 311.6 211.77 308.86 315.79 307.57 315.79 311.11"/><polygon class="cls-49" points="276.17 311.6 315.79 311.11 315.79 311.6 276.17 311.6"/></g><g class="cls-66"><polygon class="cls-16" points="350.65 197.63 332.99 197.85 332.99 197.63 350.65 197.63"/><polygon class="cls-17" points="380.65 200.79 332.99 201.38 332.99 197.85 350.65 197.63 380.65 197.63 380.65 200.79"/><polygon class="cls-18" points="380.65 204.32 332.99 204.91 332.99 201.38 380.65 200.79 380.65 204.32"/><polygon class="cls-19" points="380.65 207.86 332.99 208.45 332.99 204.91 380.65 204.32 380.65 207.86"/><polygon class="cls-20" points="380.65 211.39 332.99 211.98 332.99 208.45 380.65 207.86 380.65 211.39"/><polygon class="cls-21" points="380.65 214.92 332.99 215.51 332.99 211.98 380.65 211.39 380.65 214.92"/><polygon class="cls-22" points="380.65 218.45 332.99 219.04 332.99 215.51 380.65 214.92 380.65 218.45"/><polygon class="cls-23" points="380.65 221.99 332.99 222.58 332.99 219.04 380.65 218.45 380.65 221.99"/><polygon class="cls-24" points="380.65 225.52 332.99 226.11 332.99 222.58 380.65 221.99 380.65 225.52"/><polygon class="cls-25" points="380.65 229.05 332.99 229.64 332.99 226.11 380.65 225.52 380.65 229.05"/><polygon class="cls-26" points="380.65 232.58 332.99 233.18 332.99 229.64 380.65 229.05 380.65 232.58"/><polygon class="cls-27" points="380.65 236.12 332.99 236.71 332.99 233.18 380.65 232.58 380.65 236.12"/><polygon class="cls-28" points="380.65 239.65 332.99 240.24 332.99 236.71 380.65 236.12 380.65 239.65"/><polygon class="cls-29" points="380.65 243.18 332.99 243.77 332.99 240.24 380.65 239.65 380.65 243.18"/><polygon class="cls-30" points="380.65 246.71 332.99 247.31 332.99 243.77 380.65 243.18 380.65 246.71"/><polygon class="cls-31" points="380.65 250.25 332.99 250.84 332.99 247.31 380.65 246.71 380.65 250.25"/><polygon class="cls-32" points="380.65 253.78 332.99 254.37 332.99 250.84 380.65 250.25 380.65 253.78"/><polygon class="cls-33" points="380.65 257.31 332.99 257.9 332.99 254.37 380.65 253.78 380.65 257.31"/><polygon class="cls-34" points="380.65 260.84 332.99 261.44 332.99 257.9 380.65 257.31 380.65 260.84"/><polygon class="cls-35" points="380.65 264.38 332.99 264.97 332.99 261.44 380.65 260.84 380.65 264.38"/><polygon class="cls-36" points="380.65 267.91 332.99 268.5 332.99 264.97 380.65 264.38 380.65 267.91"/><polygon class="cls-37" points="380.65 271.44 332.99 272.03 332.99 268.5 380.65 267.91 380.65 271.44"/><polygon class="cls-38" points="380.65 274.98 332.99 275.57 332.99 272.03 380.65 271.44 380.65 274.98"/><polygon class="cls-39" points="380.65 278.51 332.99 279.1 332.99 275.57 380.65 274.98 380.65 278.51"/><polygon class="cls-40" points="380.65 282.04 332.99 282.63 332.99 279.1 380.65 278.51 380.65 282.04"/><polygon class="cls-41" points="380.65 285.57 332.99 286.16 332.99 282.63 380.65 282.04 380.65 285.57"/><polygon class="cls-42" points="380.65 289.11 332.99 289.7 332.99 286.16 380.65 285.57 380.65 289.11"/><polygon class="cls-43" points="380.65 292.64 332.99 293.23 332.99 289.7 380.65 289.11 380.65 292.64"/><polygon class="cls-44" points="380.65 296.17 332.99 296.76 332.99 293.23 380.65 292.64 380.65 296.17"/><polygon class="cls-45" points="380.65 299.7 332.99 300.29 332.99 296.76 380.65 296.17 380.65 299.7"/><polygon class="cls-46" points="380.65 303.24 332.99 303.83 332.99 300.29 380.65 299.7 380.65 303.24"/><polygon class="cls-47" points="380.65 306.77 332.99 307.36 332.99 303.83 380.65 303.24 380.65 306.77"/><polygon class="cls-48" points="332.99 307.36 380.65 306.77 380.65 308.49 332.99 308.49 332.99 307.36"/></g><g class="cls-67"><polygon class="cls-16" points="510.78 195.64 392.87 197.11 392.87 194.52 510.78 194.52 510.78 195.64"/><polygon class="cls-17" points="510.78 199.18 392.87 200.64 392.87 197.11 510.78 195.64 510.78 199.18"/><polygon class="cls-18" points="510.78 202.71 392.87 204.17 392.87 200.64 510.78 199.18 510.78 202.71"/><polygon class="cls-19" points="510.78 206.24 392.87 207.7 392.87 204.17 510.78 202.71 510.78 206.24"/><polygon class="cls-20" points="510.78 209.77 392.87 211.24 392.87 207.7 510.78 206.24 510.78 209.77"/><polygon class="cls-21" points="510.78 213.31 392.87 214.77 392.87 211.24 510.78 209.77 510.78 213.31"/><polygon class="cls-22" points="510.78 216.84 392.87 218.3 392.87 214.77 510.78 213.31 510.78 216.84"/><polygon class="cls-23" points="510.78 220.37 392.87 221.83 392.87 218.3 510.78 216.84 510.78 220.37"/><polygon class="cls-24" points="510.78 223.9 392.87 225.37 392.87 221.83 510.78 220.37 510.78 223.9"/><polygon class="cls-25" points="510.78 227.44 392.87 228.9 392.87 225.37 510.78 223.9 510.78 227.44"/><polygon class="cls-26" points="510.78 230.97 392.87 232.43 392.87 228.9 510.78 227.44 510.78 230.97"/><polygon class="cls-27" points="510.78 234.5 392.87 235.97 392.87 232.43 510.78 230.97 510.78 234.5"/><polygon class="cls-28" points="510.78 238.03 392.87 239.5 392.87 235.97 510.78 234.5 510.78 238.03"/><polygon class="cls-29" points="510.78 241.57 392.87 243.03 392.87 239.5 510.78 238.03 510.78 241.57"/><polygon class="cls-30" points="510.78 245.1 392.87 246.56 392.87 243.03 510.78 241.57 510.78 245.1"/><polygon class="cls-31" points="510.78 248.63 392.87 250.09 392.87 246.56 510.78 245.1 510.78 248.63"/><polygon class="cls-32" points="510.78 252.16 392.87 253.63 392.87 250.09 510.78 248.63 510.78 252.16"/><polygon class="cls-33" points="510.78 255.7 392.87 257.16 392.87 253.63 510.78 252.16 510.78 255.7"/><polygon class="cls-34" points="510.78 259.23 392.87 260.69 392.87 257.16 510.78 255.7 510.78 259.23"/><polygon class="cls-35" points="510.78 262.76 392.87 264.23 392.87 260.69 510.78 259.23 510.78 262.76"/><polygon class="cls-36" points="510.78 266.3 392.87 267.76 392.87 264.23 510.78 262.76 510.78 266.3"/><polygon class="cls-37" points="510.78 269.83 392.87 271.29 392.87 267.76 510.78 266.3 510.78 269.83"/><polygon class="cls-38" points="510.78 273.36 392.87 274.82 392.87 271.29 510.78 269.83 510.78 273.36"/><polygon class="cls-39" points="510.78 276.89 392.87 278.36 392.87 274.82 510.78 273.36 510.78 276.89"/><polygon class="cls-40" points="510.78 280.43 392.87 281.89 392.87 278.36 510.78 276.89 510.78 280.43"/><polygon class="cls-41" points="510.78 283.96 392.87 285.42 392.87 281.89 510.78 280.43 510.78 283.96"/><polygon class="cls-42" points="510.78 287.49 392.87 288.95 392.87 285.42 510.78 283.96 510.78 287.49"/><polygon class="cls-43" points="510.78 291.02 392.87 292.49 392.87 288.95 510.78 287.49 510.78 291.02"/><polygon class="cls-44" points="510.78 294.56 392.87 296.02 392.87 292.49 510.78 291.02 510.78 294.56"/><polygon class="cls-45" points="510.78 298.09 392.87 299.55 392.87 296.02 510.78 294.56 510.78 298.09"/><polygon class="cls-46" points="510.78 301.62 392.87 303.08 392.87 299.55 510.78 298.09 510.78 301.62"/><polygon class="cls-47" points="510.78 305.15 392.87 306.62 392.87 303.08 510.78 301.62 510.78 305.15"/><polygon class="cls-48" points="392.87 306.62 510.78 305.15 510.78 308.49 392.87 308.49 392.87 306.62"/></g><g class="cls-68"><polygon class="cls-17" points="635.38 197.63 532.12 198.91 532.12 197.63 635.38 197.63"/><polygon class="cls-18" points="656.24 200.9 532.12 202.44 532.12 198.91 635.38 197.63 656.24 197.63 656.24 200.9"/><polygon class="cls-19" points="656.24 204.44 532.12 205.98 532.12 202.44 656.24 200.9 656.24 204.44"/><polygon class="cls-20" points="656.24 207.97 532.12 209.51 532.12 205.98 656.24 204.44 656.24 207.97"/><polygon class="cls-21" points="656.24 211.5 532.12 213.04 532.12 209.51 656.24 207.97 656.24 211.5"/><polygon class="cls-22" points="656.24 215.03 532.12 216.57 532.12 213.04 656.24 211.5 656.24 215.03"/><polygon class="cls-23" points="656.24 218.57 532.12 220.11 532.12 216.57 656.24 215.03 656.24 218.57"/><polygon class="cls-24" points="656.24 222.1 532.12 223.64 532.12 220.11 656.24 218.57 656.24 222.1"/><polygon class="cls-25" points="656.24 225.63 532.12 227.17 532.12 223.64 656.24 222.1 656.24 225.63"/><polygon class="cls-26" points="656.24 229.16 532.12 230.71 532.12 227.17 656.24 225.63 656.24 229.16"/><polygon class="cls-27" points="656.24 232.7 532.12 234.24 532.12 230.71 656.24 229.16 656.24 232.7"/><polygon class="cls-28" points="656.24 236.23 532.12 237.77 532.12 234.24 656.24 232.7 656.24 236.23"/><polygon class="cls-29" points="656.24 239.76 532.12 241.3 532.12 237.77 656.24 236.23 656.24 239.76"/><polygon class="cls-30" points="656.24 243.29 532.12 244.84 532.12 241.3 656.24 239.76 656.24 243.29"/><polygon class="cls-31" points="656.24 246.83 532.12 248.37 532.12 244.84 656.24 243.29 656.24 246.83"/><polygon class="cls-32" points="656.24 250.36 532.12 251.9 532.12 248.37 656.24 246.83 656.24 250.36"/><polygon class="cls-33" points="656.24 253.89 532.12 255.43 532.12 251.9 656.24 250.36 656.24 253.89"/><polygon class="cls-34" points="656.24 257.43 532.12 258.96 532.12 255.43 656.24 253.89 656.24 257.43"/><polygon class="cls-35" points="656.24 260.96 532.12 262.5 532.12 258.96 656.24 257.43 656.24 260.96"/><polygon class="cls-36" points="656.24 264.49 532.12 266.03 532.12 262.5 656.24 260.96 656.24 264.49"/><polygon class="cls-37" points="656.24 268.02 532.12 269.56 532.12 266.03 656.24 264.49 656.24 268.02"/><polygon class="cls-38" points="656.24 271.56 532.12 273.1 532.12 269.56 656.24 268.02 656.24 271.56"/><polygon class="cls-39" points="656.24 275.09 532.12 276.63 532.12 273.1 656.24 271.56 656.24 275.09"/><polygon class="cls-40" points="656.24 278.62 532.12 280.16 532.12 276.63 656.24 275.09 656.24 278.62"/><polygon class="cls-41" points="656.24 282.15 532.12 283.69 532.12 280.16 656.24 278.62 656.24 282.15"/><polygon class="cls-42" points="656.24 285.69 532.12 287.23 532.12 283.69 656.24 282.15 656.24 285.69"/><polygon class="cls-43" points="656.24 289.22 532.12 290.76 532.12 287.23 656.24 285.69 656.24 289.22"/><polygon class="cls-44" points="656.24 292.75 532.12 294.29 532.12 290.76 656.24 289.22 656.24 292.75"/><polygon class="cls-45" points="656.24 296.28 532.12 297.82 532.12 294.29 656.24 292.75 656.24 296.28"/><polygon class="cls-46" points="656.24 299.82 532.12 301.36 532.12 297.82 656.24 296.28 656.24 299.82"/><polygon class="cls-47" points="656.24 303.35 532.12 304.89 532.12 301.36 656.24 299.82 656.24 303.35"/><polygon class="cls-48" points="656.24 306.88 532.12 308.42 532.12 304.89 656.24 303.35 656.24 306.88"/><polygon class="cls-49" points="656.24 310.41 560.9 311.6 532.12 311.6 532.12 308.42 656.24 306.88 656.24 310.41"/><polygon class="cls-50" points="560.9 311.6 656.24 310.41 656.24 311.6 560.9 311.6"/></g><g class="cls-69"><polygon class="cls-17" points="789.89 195.71 664.32 197.27 664.32 194.52 789.89 194.52 789.89 195.71"/><polygon class="cls-18" points="789.89 199.25 664.32 200.8 664.32 197.27 789.89 195.71 789.89 199.25"/><polygon class="cls-19" points="789.89 202.78 664.32 204.34 664.32 200.8 789.89 199.25 789.89 202.78"/><polygon class="cls-20" points="789.89 206.31 664.32 207.87 664.32 204.34 789.89 202.78 789.89 206.31"/><polygon class="cls-21" points="789.89 209.84 664.32 211.4 664.32 207.87 789.89 206.31 789.89 209.84"/><polygon class="cls-22" points="789.89 213.38 664.32 214.93 664.32 211.4 789.89 209.84 789.89 213.38"/><polygon class="cls-23" points="789.89 216.91 664.32 218.47 664.32 214.93 789.89 213.38 789.89 216.91"/><polygon class="cls-24" points="789.89 220.44 664.32 222 664.32 218.47 789.89 216.91 789.89 220.44"/><polygon class="cls-25" points="789.89 223.97 664.32 225.53 664.32 222 789.89 220.44 789.89 223.97"/><polygon class="cls-26" points="789.89 227.51 664.32 229.06 664.32 225.53 789.89 223.97 789.89 227.51"/><polygon class="cls-27" points="789.89 231.04 664.32 232.6 664.32 229.06 789.89 227.51 789.89 231.04"/><polygon class="cls-28" points="789.89 234.57 664.32 236.13 664.32 232.6 789.89 231.04 789.89 234.57"/><polygon class="cls-29" points="789.89 238.1 664.32 239.66 664.32 236.13 789.89 234.57 789.89 238.1"/><polygon class="cls-30" points="789.89 241.64 664.32 243.19 664.32 239.66 789.89 238.1 789.89 241.64"/><polygon class="cls-31" points="789.89 245.17 664.32 246.73 664.32 243.19 789.89 241.64 789.89 245.17"/><polygon class="cls-32" points="789.89 248.7 664.32 250.26 664.32 246.73 789.89 245.17 789.89 248.7"/><polygon class="cls-33" points="789.89 252.23 664.32 253.79 664.32 250.26 789.89 248.7 789.89 252.23"/><polygon class="cls-34" points="789.89 255.77 664.32 257.32 664.32 253.79 789.89 252.23 789.89 255.77"/><polygon class="cls-35" points="789.89 259.3 664.32 260.86 664.32 257.32 789.89 255.77 789.89 259.3"/><polygon class="cls-36" points="789.89 262.83 664.32 264.39 664.32 260.86 789.89 259.3 789.89 262.83"/><polygon class="cls-37" points="789.89 266.37 664.32 267.92 664.32 264.39 789.89 262.83 789.89 266.37"/><polygon class="cls-38" points="789.89 269.9 664.32 271.45 664.32 267.92 789.89 266.37 789.89 269.9"/><polygon class="cls-39" points="789.89 273.43 664.32 274.99 664.32 271.45 789.89 269.9 789.89 273.43"/><polygon class="cls-40" points="789.89 276.96 664.32 278.52 664.32 274.99 789.89 273.43 789.89 276.96"/><polygon class="cls-41" points="789.89 280.5 664.32 282.05 664.32 278.52 789.89 276.96 789.89 280.5"/><polygon class="cls-42" points="789.89 284.03 664.32 285.59 664.32 282.05 789.89 280.5 789.89 284.03"/><polygon class="cls-43" points="789.89 287.56 664.32 289.12 664.32 285.59 789.89 284.03 789.89 287.56"/><polygon class="cls-44" points="789.89 291.09 664.32 292.65 664.32 289.12 789.89 287.56 789.89 291.09"/><polygon class="cls-45" points="789.89 294.63 664.32 296.18 664.32 292.65 789.89 291.09 789.89 294.63"/><polygon class="cls-46" points="789.89 298.16 664.32 299.72 664.32 296.18 789.89 294.63 789.89 298.16"/><polygon class="cls-47" points="789.89 301.69 664.32 303.25 664.32 299.72 789.89 298.16 789.89 301.69"/><polygon class="cls-48" points="789.89 305.22 664.32 306.78 664.32 303.25 789.89 301.69 789.89 305.22"/><polygon class="cls-49" points="789.89 308.76 664.32 310.31 664.32 306.78 789.89 305.22 789.89 308.76"/><polygon class="cls-50" points="664.32 310.31 789.89 308.76 789.89 311.6 664.32 311.6 664.32 310.31"/></g><g class="cls-70"><polygon class="cls-17" points="885.9 194.52 807.3 195.5 807.3 194.52 885.9 194.52"/><polygon class="cls-18" points="901.99 197.85 807.3 199.03 807.3 195.5 885.9 194.52 901.99 194.52 901.99 197.85"/><polygon class="cls-19" points="901.99 201.39 807.3 202.56 807.3 199.03 901.99 197.85 901.99 201.39"/><polygon class="cls-20" points="901.99 204.92 807.3 206.09 807.3 202.56 901.99 201.39 901.99 204.92"/><polygon class="cls-21" points="901.99 208.45 807.3 209.63 807.3 206.09 901.99 204.92 901.99 208.45"/><polygon class="cls-22" points="901.99 211.99 807.3 213.16 807.3 209.63 901.99 208.45 901.99 211.99"/><polygon class="cls-23" points="901.99 215.52 807.3 216.69 807.3 213.16 901.99 211.99 901.99 215.52"/><polygon class="cls-24" points="901.99 219.05 807.3 220.22 807.3 216.69 901.99 215.52 901.99 219.05"/><polygon class="cls-25" points="901.99 222.58 807.3 223.76 807.3 220.22 901.99 219.05 901.99 222.58"/><polygon class="cls-26" points="901.99 226.12 807.3 227.29 807.3 223.76 901.99 222.58 901.99 226.12"/><polygon class="cls-27" points="901.99 229.65 807.3 230.82 807.3 227.29 901.99 226.12 901.99 229.65"/><polygon class="cls-28" points="901.99 233.18 807.3 234.36 807.3 230.82 901.99 229.65 901.99 233.18"/><polygon class="cls-29" points="901.99 236.71 807.3 237.89 807.3 234.36 901.99 233.18 901.99 236.71"/><polygon class="cls-30" points="901.99 240.25 807.3 241.42 807.3 237.89 901.99 236.71 901.99 240.25"/><polygon class="cls-31" points="901.99 243.78 807.3 244.95 807.3 241.42 901.99 240.25 901.99 243.78"/><polygon class="cls-32" points="901.99 247.31 807.3 248.49 807.3 244.95 901.99 243.78 901.99 247.31"/><polygon class="cls-33" points="901.99 250.84 807.3 252.02 807.3 248.49 901.99 247.31 901.99 250.84"/><polygon class="cls-34" points="901.99 254.38 807.3 255.55 807.3 252.02 901.99 250.84 901.99 254.38"/><polygon class="cls-35" points="901.99 257.91 807.3 259.08 807.3 255.55 901.99 254.38 901.99 257.91"/><polygon class="cls-36" points="901.99 261.44 807.3 262.62 807.3 259.08 901.99 257.91 901.99 261.44"/><polygon class="cls-37" points="901.99 264.97 807.3 266.15 807.3 262.62 901.99 261.44 901.99 264.97"/><polygon class="cls-38" points="901.99 268.51 807.3 269.68 807.3 266.15 901.99 264.97 901.99 268.51"/><polygon class="cls-39" points="901.99 272.04 807.3 273.21 807.3 269.68 901.99 268.51 901.99 272.04"/><polygon class="cls-40" points="901.99 275.57 807.3 276.75 807.3 273.21 901.99 272.04 901.99 275.57"/><polygon class="cls-41" points="901.99 279.1 807.3 280.28 807.3 276.75 901.99 275.57 901.99 279.1"/><polygon class="cls-42" points="901.99 282.64 807.3 283.81 807.3 280.28 901.99 279.1 901.99 282.64"/><polygon class="cls-43" points="901.99 286.17 807.3 287.34 807.3 283.81 901.99 282.64 901.99 286.17"/><polygon class="cls-44" points="901.99 289.7 807.3 290.88 807.3 287.34 901.99 286.17 901.99 289.7"/><polygon class="cls-45" points="901.99 293.23 807.3 294.41 807.3 290.88 901.99 289.7 901.99 293.23"/><polygon class="cls-46" points="901.99 296.77 807.3 297.94 807.3 294.41 901.99 293.23 901.99 296.77"/><polygon class="cls-47" points="901.99 300.3 807.3 301.48 807.3 297.94 901.99 296.77 901.99 300.3"/><polygon class="cls-48" points="901.99 303.83 807.3 305.01 807.3 301.48 901.99 300.3 901.99 303.83"/><polygon class="cls-49" points="901.99 307.37 807.3 308.54 807.3 305.01 901.99 303.83 901.99 307.37"/><polygon class="cls-50" points="901.99 310.9 845.63 311.6 807.3 311.6 807.3 308.54 901.99 307.37 901.99 310.9"/><polygon class="cls-51" points="845.63 311.6 901.99 310.9 901.99 311.6 845.63 311.6"/></g><path class="cls-71" d="M163.42,151.27q-4.6-4.91-4.6-13.62V72.87h23.67v58.4q0,3.73,1.56,5.29t5.14,1.56h5.45v18.06H176.57Q168,156.18,163.42,151.27Z" transform="translate(0)"/><path class="cls-71" d="M219.78,156.72q-9.42-1.78-14.87-5.37V133.29a58.52,58.52,0,0,0,15.34,6.23,62.41,62.41,0,0,0,15.34,2.18q8.25,0,12.07-1.64a5.86,5.86,0,0,0,3.81-5.84,6.31,6.31,0,0,0-3.66-5.76q-3.66-2-13.62-5.14l-3.89-1.24q-13.4-4.2-19.78-10.12t-6.38-16.2q0-12,9.65-18.6t26-6.62a77.06,77.06,0,0,1,17.13,1.87,46.19,46.19,0,0,1,13.24,4.82V95.76a42.2,42.2,0,0,0-12.38-5.52,52.81,52.81,0,0,0-14.56-2.11q-15.1,0-15.1,7.63a6.3,6.3,0,0,0,3.58,5.76q3.57,2,12.76,4.83l5.61,1.71q9.81,3.12,15.34,6.86a21.38,21.38,0,0,1,7.71,8.4,26.85,26.85,0,0,1,2.18,11.37q0,10.74-9.27,17.29t-27.64,6.53A99,99,0,0,1,219.78,156.72Z" transform="translate(0)"/><path class="cls-71" d="M200.09,47.65h29V31.14H245.4V47.65h10.43V31.14H272V62.6H200.09Z" transform="translate(0)"/><path class="cls-71" d="M250.69,0h21.18V22H250.69Z" transform="translate(0)"/><path class="cls-71" d="M301.92,156.41a59.26,59.26,0,0,1-16.81-5.84V106.82H324.5V124.1H308.31v13.39q4.81,2.65,14.17,2.65,24.75,0,24.75-25.85,0-13.23-7.16-19.31t-24.13-6.07a81.22,81.22,0,0,0-16,1.64,51,51,0,0,0-13.78,4.59V76.77a63.85,63.85,0,0,1,15.41-4.6,105.6,105.6,0,0,1,18.84-1.63q25.07,0,38.07,11.44t13,32.31q0,20.56-12.77,32.39t-36.28,11.83A101,101,0,0,1,301.92,156.41Z" transform="translate(0)"/><path class="cls-71" d="M381.34,83.31h23.51l17.75,55.27q11.52,0,17.75-6.93T446.58,112q0-11.52-4.36-17.29t-13.39-5.76a33.18,33.18,0,0,0-10,1.56V72.72a46.76,46.76,0,0,1,14.8-2.18q18.52,0,27.79,10.82t9.26,30.6q0,13.86-6.07,23.82A39.8,39.8,0,0,1,448.21,151a49.58,49.58,0,0,1-22.65,5.22H404.69Z" transform="translate(0)"/><path class="cls-71" d="M488.39,151.27q-4.61-4.91-4.6-13.62V72.87h23.67v58.4q0,3.73,1.56,5.29t5.14,1.56h5.45v18.06H501.55Q493,156.18,488.39,151.27Z" transform="translate(0)"/><path class="cls-71" d="M537.59,151.35q-8.49-7.15-8.48-20.24t9.26-20.55q9.27-7.49,25.46-7.48,15.1,0,25.85,5v-3.27q0-8.4-5.53-12.45t-17.83-4a71.5,71.5,0,0,0-15,1.56,56.41,56.41,0,0,0-13.08,4.36V76.45a58.84,58.84,0,0,1,14.17-4.2,97.76,97.76,0,0,1,18.22-1.71q20.87,0,31.69,9.26t10.82,24.84v51.54H589.68v-31q-9-4.66-21.18-4.67-7.93,0-11.6,2.65t-3.66,8.25q0,5.15,3.35,7.71t10.67,2.57a21.83,21.83,0,0,0,8.72-1.56v16.35q-6.08,2-15.58,2Q546.08,158.51,537.59,151.35Z" transform="translate(0)"/><path class="cls-71" d="M589.37,34.88H613V62.6H589.37Z" transform="translate(0)"/><path class="cls-71" d="M654.3,104.33q0-8.1-3.43-11.76t-12-3.66a37,37,0,0,0-16.66,4.21V75.21a44.14,44.14,0,0,1,10-3.27,55.84,55.84,0,0,1,12.22-1.4q16.35,0,24.91,8.72T678,104.48v51.7H654.3Z" transform="translate(0)"/></g></g></svg>